<svg viewBox="0 0 40 40" xmlns="http://www.w3.org/2000/svg" xmlns:xlink="http://www.w3.org/1999/xlink" width="40.000000" height="40.000000" fill="none" customFrame="#000000">
	<defs>
		<clipPath id="clipPath_16">
			<rect width="18.000000" height="18.000000" x="11.000000" y="11.000000" fill="rgb(255,255,255)" />
		</clipPath>
		<clipPath id="clipPath_17">
			<rect width="18.000000" height="18.000000" x="11.000000" y="11.000000" fill="rgb(255,255,255)" />
		</clipPath>
		<clipPath id="clipPath_18">
			<rect width="18.000000" height="18.000000" x="11.000000" y="11.000000" fill="rgb(255,255,255)" />
		</clipPath>
		<clipPath id="clipPath_19">
			<rect width="18.000000" height="18.000000" x="11.000000" y="11.000000" fill="rgb(255,255,255)" />
		</clipPath>
	</defs>
	<g id="Blog">
		<circle id="Ellipse 11" cx="20" cy="20" r="20" fill="rgb(240,240,246)" />
		<g id="Icons/Blog" customFrame="url(#clipPath_16)">
			<rect id="Icons/Blog" width="18.000000" height="18.000000" x="11.000000" y="11.000000" fill="rgb(255,255,255)" fill-opacity="0" />
			<g id="Icons/Blog" customFrame="url(#clipPath_17)">
				<rect id="Icons/Blog" width="18.000000" height="18.000000" x="11.000000" y="11.000000" fill="rgb(255,255,255)" fill-opacity="0" />
				<g id="Icons/Blog" customFrame="url(#clipPath_18)">
					<rect id="Icons/Blog" width="18.000000" height="18.000000" x="11.000000" y="11.000000" fill="rgb(255,255,255)" fill-opacity="0" />
					<g id="Icons/Blog" clip-path="url(#clipPath_19)" customFrame="url(#clipPath_19)">
						<rect id="Icons/Blog" width="18.000000" height="18.000000" x="11.000000" y="11.000000" fill="rgb(255,255,255)" fill-opacity="0" />
						<path id="Vector" d="M11 11L29 11L29 29L11 29L11 11Z" fill-rule="nonzero" />
						<path id="Vector" d="M26.75 12.5C15.5 12.5 14 23 13.25 27.5L14.7485 27.5C15.248 25.0002 16.4982 23.6255 18.5 23.375C21.5 23 23.75 20.375 24.5 18.125L23.375 17.375L24.125 16.625C24.875 15.875 25.628 14.75 26.75 12.5Z" fill="rgb(118,118,118)" fill-rule="nonzero" />
						<rect id="Rectangle 159" width="100.000000" height="100.000000" x="-27.000000" y="-33.000000" fill="rgb(217,217,217)" />
					</g>
				</g>
			</g>
		</g>
	</g>
</svg>
