<svg viewBox="0 0 40 40" xmlns="http://www.w3.org/2000/svg" xmlns:xlink="http://www.w3.org/1999/xlink" width="40.000000" height="40.000000" fill="none" customFrame="#000000">
	<defs>
		<clipPath id="clipPath_20">
			<rect width="18.000000" height="18.000000" x="11.000000" y="11.000000" fill="rgb(255,255,255)" />
		</clipPath>
		<clipPath id="clipPath_21">
			<rect width="18.000000" height="18.000000" x="11.000000" y="11.000000" fill="rgb(255,255,255)" />
		</clipPath>
		<clipPath id="clipPath_22">
			<rect width="18.000000" height="18.000000" x="11.000000" y="11.000000" fill="rgb(255,255,255)" />
		</clipPath>
		<clipPath id="clipPath_23">
			<rect width="18.000000" height="18.000000" x="11.000000" y="11.000000" fill="rgb(255,255,255)" />
		</clipPath>
	</defs>
	<g id="Contact">
		<circle id="Ellipse 14" cx="20" cy="20" r="20" fill="rgb(240,240,246)" />
		<g id="Icons/Contact" customFrame="url(#clipPath_20)">
			<rect id="Icons/Contact" width="18.000000" height="18.000000" x="11.000000" y="11.000000" fill="rgb(255,255,255)" fill-opacity="0" />
			<g id="Icons/Contact" customFrame="url(#clipPath_21)">
				<rect id="Icons/Contact" width="18.000000" height="18.000000" x="11.000000" y="11.000000" fill="rgb(255,255,255)" fill-opacity="0" />
				<g id="Icons/Contact" customFrame="url(#clipPath_22)">
					<rect id="Icons/Contact" width="18.000000" height="18.000000" x="11.000000" y="11.000000" fill="rgb(255,255,255)" fill-opacity="0" />
					<g id="Icons/Contact" clip-path="url(#clipPath_23)" customFrame="url(#clipPath_23)">
						<rect id="Icons/Contact" width="18.000000" height="18.000000" x="11.000000" y="11.000000" fill="rgb(114,114,114)" fill-opacity="0" />
						<path id="Vector" d="M11 11L29 11L29 29L11 29L11 11Z" fill-rule="nonzero" />
						<path id="Vector" d="M15.8412 25.25L12.5 27.875L12.5 14C12.5 13.8011 12.579 13.6103 12.7197 13.4697C12.8603 13.329 13.0511 13.25 13.25 13.25L26.75 13.25C26.9489 13.25 27.1397 13.329 27.2803 13.4697C27.421 13.6103 27.5 13.8011 27.5 14L27.5 24.5C27.5 24.6989 27.421 24.8897 27.2803 25.0303C27.1397 25.171 26.9489 25.25 26.75 25.25L15.8412 25.25Z" fill="rgb(118,118,118)" fill-rule="nonzero" />
					</g>
				</g>
			</g>
		</g>
	</g>
</svg>
