<svg viewBox="0 0 40 40" xmlns="http://www.w3.org/2000/svg" xmlns:xlink="http://www.w3.org/1999/xlink" width="40.000000" height="40.000000" fill="none" customFrame="#000000">
	<defs>
		<clipPath id="clipPath_8">
			<rect width="18.000000" height="18.000000" x="11.000000" y="11.000000" fill="rgb(255,255,255)" />
		</clipPath>
		<clipPath id="clipPath_9">
			<rect width="18.000000" height="18.000000" x="11.000000" y="11.000000" fill="rgb(255,255,255)" />
		</clipPath>
		<clipPath id="clipPath_10">
			<rect width="18.000000" height="18.000000" x="11.000000" y="11.000000" fill="rgb(255,255,255)" />
		</clipPath>
	</defs>
	<g id="Cv">
		<circle id="Ellipse 11" cx="20" cy="20" r="20" fill="rgb(240,240,246)" />
		<g id="Icons/cv" customFrame="url(#clipPath_8)">
			<rect id="Icons/cv" width="18.000000" height="18.000000" x="11.000000" y="11.000000" fill="rgb(255,255,255)" fill-opacity="0" />
			<g id="Icons/cv" customFrame="url(#clipPath_9)">
				<rect id="Icons/cv" width="18.000000" height="18.000000" x="11.000000" y="11.000000" fill="rgb(255,255,255)" fill-opacity="0" />
				<g id="Icons/cv" clip-path="url(#clipPath_10)" customFrame="url(#clipPath_10)">
					<rect id="Icons/cv" width="18.000000" height="18.000000" x="11.000000" y="11.000000" fill="rgb(255,255,255)" fill-opacity="0" />
					<path id="Vector" d="M23.7636 22.272L20.25 25.6259L16.7364 22.272C14.103 22.381 12 24.4376 12 26.9759L12 27.3134C12 28.245 12.7919 29.0009 13.7679 29.0009L26.7321 29.0009C27.7081 29.0009 28.5 28.245 28.5 27.3134L28.5 26.9759C28.5 24.4376 26.397 22.381 23.7636 22.272ZM12.5009 13.8064L12.7366 13.8591L12.7366 15.9122C12.4788 16.0599 12.2946 16.3165 12.2946 16.6259C12.2946 16.9212 12.4641 17.1673 12.7035 17.3185L12.1289 19.5087C12.0663 19.7513 12.2063 20.0009 12.4088 20.0009L13.9483 20.0009C14.1509 20.0009 14.2908 19.7513 14.2282 19.5087L13.6537 17.3185C13.8931 17.1673 14.0625 16.9212 14.0625 16.6259C14.0625 16.3165 13.8783 16.0599 13.6205 15.9122L13.6205 14.063L16.0513 14.622C15.7346 15.2267 15.5357 15.9017 15.5357 16.6259C15.5357 19.1114 17.6461 21.1259 20.25 21.1259C22.8539 21.1259 24.9643 19.1114 24.9643 16.6259C24.9643 15.9017 24.7691 15.2267 24.4487 14.622L27.9954 13.8064C28.6657 13.6517 28.6657 12.8536 27.9954 12.6989L20.9829 11.0817C20.5041 10.9728 19.9996 10.9728 19.5208 11.0817L12.5009 12.6954C11.8343 12.8501 11.8343 13.6517 12.5009 13.8064Z" fill="rgb(118,118,118)" fill-rule="nonzero" />
				</g>
			</g>
		</g>
	</g>
</svg>
